solid OpenSCAD_Model
  facet normal 2.22045e-016 0 1
    outer loop
      vertex 1.24698 -11.5637 7
      vertex -5 -15 7
      vertex 5 -15 7
    endloop
  endfacet
  facet normal 2.22045e-016 0 1
    outer loop
      vertex -1.80194 -10.8678 7
      vertex -1.80194 -9.13223 7
      vertex -5 -4.1 7
    endloop
  endfacet
  facet normal 2.22045e-016 0 1
    outer loop
      vertex -0.445042 -11.9499 7
      vertex -5 -15 7
      vertex 1.24698 -11.5637 7
    endloop
  endfacet
  facet normal 2.22045e-016 0 1
    outer loop
      vertex -1.80194 -10.8678 7
      vertex -5 -15 7
      vertex -0.445042 -11.9499 7
    endloop
  endfacet
  facet normal 2.22045e-016 0 1
    outer loop
      vertex -1.80194 -9.13223 7
      vertex -0.445042 -8.05014 7
      vertex -5 -4.1 7
    endloop
  endfacet
  facet normal 2.22045e-016 0 1
    outer loop
      vertex -5 -4.1 7
      vertex -5 -15 7
      vertex -1.80194 -10.8678 7
    endloop
  endfacet
  facet normal 2.22045e-016 0 1
    outer loop
      vertex 5 -4.1 7
      vertex -5 -4.1 7
      vertex -0.445042 -8.05014 7
    endloop
  endfacet
  facet normal 2.22045e-016 0 1
    outer loop
      vertex 5 -4.1 7
      vertex 1.24698 -8.43634 7
      vertex 5 -15 7
    endloop
  endfacet
  facet normal 2.22045e-016 0 1
    outer loop
      vertex 5 -4.1 7
      vertex -0.445042 -8.05014 7
      vertex 1.24698 -8.43634 7
    endloop
  endfacet
  facet normal 2.22045e-016 0 1
    outer loop
      vertex 1.24698 -8.43634 7
      vertex 2 -10 7
      vertex 5 -15 7
    endloop
  endfacet
  facet normal 2.22045e-016 0 1
    outer loop
      vertex 2 -10 7
      vertex 1.24698 -11.5637 7
      vertex 5 -15 7
    endloop
  endfacet
  facet normal 0 -1 0
    outer loop
      vertex 5 -15 7
      vertex -5 -15 7
      vertex -5 -15 -7
    endloop
  endfacet
  facet normal 0 -1 0
    outer loop
      vertex 5 -15 -7
      vertex 5 -15 7
      vertex -5 -15 -7
    endloop
  endfacet
  facet normal -1 0 2.22045e-016
    outer loop
      vertex -5 -15 7
      vertex -5 -4.1 7
      vertex -5 -15 -7
    endloop
  endfacet
  facet normal -1 0 2.22045e-016
    outer loop
      vertex -5 -15 -7
      vertex -5 -4.1 7
      vertex -5 -4.1 3
    endloop
  endfacet
  facet normal -1 0 2.22045e-016
    outer loop
      vertex -5 -15 -7
      vertex -5 -4.1 3
      vertex -5 -4.02122 2.20013
    endloop
  endfacet
  facet normal -1 0 2.22045e-016
    outer loop
      vertex -5 -4.02122 2.20013
      vertex -5 -3.78791 1.431
      vertex -5 -15 -7
    endloop
  endfacet
  facet normal -1 0 2.22045e-016
    outer loop
      vertex -5 -3.78791 1.431
      vertex -5 -3.40902 0.722162
      vertex -5 -15 -7
    endloop
  endfacet
  facet normal -1 0 2.22045e-016
    outer loop
      vertex -5 -3.40902 0.722162
      vertex -5 -2.89914 0.100862
      vertex -5 -15 -7
    endloop
  endfacet
  facet normal -1 0 2.22045e-016
    outer loop
      vertex -5 -2.89914 0.100862
      vertex -5 -2.27784 -0.409025
      vertex -5 -15 -7
    endloop
  endfacet
  facet normal -1 0 2.22045e-016
    outer loop
      vertex -5 -2.27784 -0.409025
      vertex -5 -1.569 -0.787906
      vertex -5 -15 -7
    endloop
  endfacet
  facet normal -1 0 2.22045e-016
    outer loop
      vertex -5 -1.569 -0.787906
      vertex -5 -0.79987 -1.02122
      vertex -5 -15 -7
    endloop
  endfacet
  facet normal -1 0 2.22045e-016
    outer loop
      vertex -5 -0.79987 -1.02122
      vertex -5 0 -1.1
      vertex -5 -15 -7
    endloop
  endfacet
  facet normal -1 0 2.22045e-016
    outer loop
      vertex -5 0 -1.1
      vertex -5 0.79987 -1.02122
      vertex -5 -15 -7
    endloop
  endfacet
  facet normal -1 0 2.22045e-016
    outer loop
      vertex -5 0.79987 -1.02122
      vertex -5 1.569 -0.787906
      vertex -5 -15 -7
    endloop
  endfacet
  facet normal -1 0 2.22045e-016
    outer loop
      vertex -5 1.569 -0.787906
      vertex -5 15 -7
      vertex -5 -15 -7
    endloop
  endfacet
  facet normal -1 0 2.22045e-016
    outer loop
      vertex -5 2.89914 0.100862
      vertex -5 15 7
      vertex -5 2.27784 -0.409025
    endloop
  endfacet
  facet normal -1 0 2.22045e-016
    outer loop
      vertex -5 3.40902 0.722162
      vertex -5 15 7
      vertex -5 2.89914 0.100862
    endloop
  endfacet
  facet normal -1 0 2.22045e-016
    outer loop
      vertex -5 3.78791 1.431
      vertex -5 15 7
      vertex -5 3.40902 0.722162
    endloop
  endfacet
  facet normal -1 0 2.22045e-016
    outer loop
      vertex -5 4.02122 2.20013
      vertex -5 15 7
      vertex -5 3.78791 1.431
    endloop
  endfacet
  facet normal -1 0 2.22045e-016
    outer loop
      vertex -5 4.1 3
      vertex -5 4.1 7
      vertex -5 15 7
    endloop
  endfacet
  facet normal -1 0 2.22045e-016
    outer loop
      vertex -5 4.1 3
      vertex -5 15 7
      vertex -5 4.02122 2.20013
    endloop
  endfacet
  facet normal -1 0 2.22045e-016
    outer loop
      vertex -5 2.27784 -0.409025
      vertex -5 15 7
      vertex -5 15 -7
    endloop
  endfacet
  facet normal -1 0 2.22045e-016
    outer loop
      vertex -5 2.27784 -0.409025
      vertex -5 15 -7
      vertex -5 1.569 -0.787906
    endloop
  endfacet
  facet normal 0 1 0
    outer loop
      vertex 5 -4.1 3
      vertex -5 -4.1 3
      vertex 5 -4.1 7
    endloop
  endfacet
  facet normal 0 1 0
    outer loop
      vertex 5 -4.1 7
      vertex -5 -4.1 3
      vertex -5 -4.1 7
    endloop
  endfacet
  facet normal 1 0 -2.22045e-016
    outer loop
      vertex 5 -4.1 7
      vertex 5 -15 7
      vertex 5 -15 -7
    endloop
  endfacet
  facet normal 1 0 -2.22045e-016
    outer loop
      vertex 5 0.79987 -1.02122
      vertex 5 0 -1.1
      vertex 5 -15 -7
    endloop
  endfacet
  facet normal 1 0 -2.22045e-016
    outer loop
      vertex 5 -4.1 3
      vertex 5 -4.1 7
      vertex 5 -15 -7
    endloop
  endfacet
  facet normal 1 0 -2.22045e-016
    outer loop
      vertex 5 15 7
      vertex 5 4.1 7
      vertex 5 15 -7
    endloop
  endfacet
  facet normal 1 0 -2.22045e-016
    outer loop
      vertex 5 4.1 7
      vertex 5 4.1 3
      vertex 5 15 -7
    endloop
  endfacet
  facet normal 1 0 -2.22045e-016
    outer loop
      vertex 5 4.1 3
      vertex 5 4.02122 2.20013
      vertex 5 15 -7
    endloop
  endfacet
  facet normal 1 0 -2.22045e-016
    outer loop
      vertex 5 4.02122 2.20013
      vertex 5 3.78791 1.431
      vertex 5 15 -7
    endloop
  endfacet
  facet normal 1 0 -2.22045e-016
    outer loop
      vertex 5 15 -7
      vertex 5 3.40902 0.722162
      vertex 5 2.89914 0.100862
    endloop
  endfacet
  facet normal 1 0 -2.22045e-016
    outer loop
      vertex 5 15 -7
      vertex 5 2.89914 0.100862
      vertex 5 2.27784 -0.409025
    endloop
  endfacet
  facet normal 1 0 -2.22045e-016
    outer loop
      vertex 5 15 -7
      vertex 5 1.569 -0.787906
      vertex 5 -15 -7
    endloop
  endfacet
  facet normal 1 0 -2.22045e-016
    outer loop
      vertex 5 15 -7
      vertex 5 2.27784 -0.409025
      vertex 5 1.569 -0.787906
    endloop
  endfacet
  facet normal 1 0 -2.22045e-016
    outer loop
      vertex 5 1.569 -0.787906
      vertex 5 0.79987 -1.02122
      vertex 5 -15 -7
    endloop
  endfacet
  facet normal 1 0 -2.22045e-016
    outer loop
      vertex 5 -0.79987 -1.02122
      vertex 5 -1.569 -0.787906
      vertex 5 -15 -7
    endloop
  endfacet
  facet normal 1 0 -2.22045e-016
    outer loop
      vertex 5 -1.569 -0.787906
      vertex 5 -2.27784 -0.409025
      vertex 5 -15 -7
    endloop
  endfacet
  facet normal 1 0 -2.22045e-016
    outer loop
      vertex 5 -2.27784 -0.409025
      vertex 5 -2.89914 0.100862
      vertex 5 -15 -7
    endloop
  endfacet
  facet normal 1 0 -2.22045e-016
    outer loop
      vertex 5 -2.89914 0.100862
      vertex 5 -3.40902 0.722162
      vertex 5 -15 -7
    endloop
  endfacet
  facet normal 1 0 -2.22045e-016
    outer loop
      vertex 5 -3.40902 0.722162
      vertex 5 -3.78791 1.431
      vertex 5 -15 -7
    endloop
  endfacet
  facet normal 1 0 -2.22045e-016
    outer loop
      vertex 5 -3.78791 1.431
      vertex 5 -4.02122 2.20013
      vertex 5 -15 -7
    endloop
  endfacet
  facet normal 1 0 -2.22045e-016
    outer loop
      vertex 5 -4.02122 2.20013
      vertex 5 -4.1 3
      vertex 5 -15 -7
    endloop
  endfacet
  facet normal 1 0 -2.22045e-016
    outer loop
      vertex 5 3.78791 1.431
      vertex 5 3.40902 0.722162
      vertex 5 15 -7
    endloop
  endfacet
  facet normal 1 0 -2.22045e-016
    outer loop
      vertex 5 0 -1.1
      vertex 5 -0.79987 -1.02122
      vertex 5 -15 -7
    endloop
  endfacet
  facet normal -0.900969 0.433884 4.00111e-016
    outer loop
      vertex 2 -10 -0.51
      vertex 1.52731 -10.9815 -0.325521
      vertex 2 -10 7
    endloop
  endfacet
  facet normal -0.900969 0.433884 4.00111e-016
    outer loop
      vertex 2 -10 7
      vertex 1.52731 -10.9815 -0.325521
      vertex 1.24698 -11.5637 -0.5927
    endloop
  endfacet
  facet normal -0.900969 0.433884 4.00111e-016
    outer loop
      vertex 2 -10 7
      vertex 1.24698 -11.5637 -0.5927
      vertex 1.24698 -11.5637 7
    endloop
  endfacet
  facet normal -0.222521 0.974928 9.88192e-017
    outer loop
      vertex 1.24698 -11.5637 -0.5927
      vertex 0.764403 -11.6738 -0.350094
      vertex 1.24698 -11.5637 7
    endloop
  endfacet
  facet normal -0.222521 0.974928 9.88192e-017
    outer loop
      vertex 1.24698 -11.5637 7
      vertex 0.764403 -11.6738 -0.350094
      vertex -0.274759 -11.911 -0.440641
    endloop
  endfacet
  facet normal -0.222521 0.974928 9.88192e-017
    outer loop
      vertex -0.274759 -11.911 -0.440641
      vertex -0.445042 -11.9499 -0.551212
      vertex 1.24698 -11.5637 7
    endloop
  endfacet
  facet normal -0.222521 0.974928 9.88192e-017
    outer loop
      vertex 1.24698 -11.5637 7
      vertex -0.445042 -11.9499 -0.551212
      vertex -0.445042 -11.9499 7
    endloop
  endfacet
  facet normal -0.900969 -0.433884 4.00111e-016
    outer loop
      vertex 1.24698 -8.43634 -0.5927
      vertex 1.52731 -9.01846 -0.325521
      vertex 1.24698 -8.43634 7
    endloop
  endfacet
  facet normal -0.900969 -0.433884 4.00111e-016
    outer loop
      vertex 1.24698 -8.43634 7
      vertex 1.52731 -9.01846 -0.325521
      vertex 2 -10 -0.51
    endloop
  endfacet
  facet normal -0.900969 -0.433884 4.00111e-016
    outer loop
      vertex 1.24698 -8.43634 7
      vertex 2 -10 -0.51
      vertex 2 -10 7
    endloop
  endfacet
  facet normal -0.222521 -0.974928 9.88192e-017
    outer loop
      vertex -0.445042 -8.05014 7
      vertex -0.445042 -8.05014 -0.551212
      vertex -0.274759 -8.08901 -0.440641
    endloop
  endfacet
  facet normal -0.222521 -0.974928 9.88192e-017
    outer loop
      vertex 0.764403 -8.32619 -0.350094
      vertex -0.445042 -8.05014 7
      vertex -0.274759 -8.08901 -0.440641
    endloop
  endfacet
  facet normal -0.222521 -0.974928 9.88192e-017
    outer loop
      vertex 0.764403 -8.32619 -0.350094
      vertex 1.24698 -8.43634 -0.5927
      vertex -0.445042 -8.05014 7
    endloop
  endfacet
  facet normal -0.222521 -0.974928 9.88192e-017
    outer loop
      vertex 1.24698 -8.43634 -0.5927
      vertex 1.24698 -8.43634 7
      vertex -0.445042 -8.05014 7
    endloop
  endfacet
  facet normal 0.62349 -0.781831 -2.76885e-016
    outer loop
      vertex -1.80194 -9.13223 -0.57884
      vertex -1.181 -8.63705 -0.313438
      vertex -0.445042 -8.05014 7
    endloop
  endfacet
  facet normal 0.62349 -0.781831 -2.76885e-016
    outer loop
      vertex -0.445042 -8.05014 7
      vertex -1.181 -8.63705 -0.313438
      vertex -0.445042 -8.05014 -0.551212
    endloop
  endfacet
  facet normal 0.62349 -0.781831 -2.76885e-016
    outer loop
      vertex -1.80194 -9.13223 -0.57884
      vertex -0.445042 -8.05014 7
      vertex -1.80194 -9.13223 7
    endloop
  endfacet
  facet normal 1 0 -4.44089e-016
    outer loop
      vertex -1.80194 -9.13223 7
      vertex -1.80194 -10.5291 -0.388011
      vertex -1.80194 -9.4709 -0.388011
    endloop
  endfacet
  facet normal 1 0 -4.44089e-016
    outer loop
      vertex -1.80194 -10.8678 -0.57884
      vertex -1.80194 -10.5291 -0.388011
      vertex -1.80194 -9.13223 7
    endloop
  endfacet
  facet normal 1 0 -4.44089e-016
    outer loop
      vertex -1.80194 -9.13223 -0.57884
      vertex -1.80194 -9.13223 7
      vertex -1.80194 -9.4709 -0.388011
    endloop
  endfacet
  facet normal 1 0 -4.44089e-016
    outer loop
      vertex -1.80194 -9.13223 7
      vertex -1.80194 -10.8678 7
      vertex -1.80194 -10.8678 -0.57884
    endloop
  endfacet
  facet normal 0.62349 0.781831 -2.76885e-016
    outer loop
      vertex -1.181 -11.3629 -0.313438
      vertex -1.80194 -10.8678 -0.57884
      vertex -1.80194 -10.8678 7
    endloop
  endfacet
  facet normal 0.62349 0.781831 -2.76885e-016
    outer loop
      vertex -1.181 -11.3629 -0.313438
      vertex -1.80194 -10.8678 7
      vertex -0.445042 -11.9499 -0.551212
    endloop
  endfacet
  facet normal 0.62349 0.781831 -2.76885e-016
    outer loop
      vertex -1.80194 -10.8678 7
      vertex -0.445042 -11.9499 7
      vertex -0.445042 -11.9499 -0.551212
    endloop
  endfacet
  facet normal -2.22045e-016 0 -1
    outer loop
      vertex 1.45395 13.1837 -7
      vertex -5 15 -7
      vertex 5 15 -7
    endloop
  endfacet
  facet normal -2.22045e-016 0 -1
    outer loop
      vertex -3.35823 -10.9861 -7
      vertex -5 -15 -7
      vertex -3.35823 -9.01394 -7
    endloop
  endfacet
  facet normal -2.22045e-016 0 -1
    outer loop
      vertex -5 -15 -7
      vertex -0.498102 -13.4644 -7
      vertex 5 -15 -7
    endloop
  endfacet
  facet normal -2.22045e-016 0 -1
    outer loop
      vertex -2.29201 -7.35488 -7
      vertex -5 15 -7
      vertex -0.498102 -6.53562 -7
    endloop
  endfacet
  facet normal -2.22045e-016 0 -1
    outer loop
      vertex -0.498102 -13.4644 -7
      vertex 1.45395 -13.1837 -7
      vertex 5 -15 -7
    endloop
  endfacet
  facet normal -2.22045e-016 0 -1
    outer loop
      vertex 1.45395 -13.1837 -7
      vertex 2.94439 -11.8922 -7
      vertex 5 -15 -7
    endloop
  endfacet
  facet normal -2.22045e-016 0 -1
    outer loop
      vertex 5 -15 -7
      vertex 3.5 -10 -7
      vertex 5 15 -7
    endloop
  endfacet
  facet normal -2.22045e-016 0 -1
    outer loop
      vertex -2.29201 7.35488 -7
      vertex 1.45395 -6.81629 -7
      vertex -3.35823 9.01394 -7
    endloop
  endfacet
  facet normal -2.22045e-016 0 -1
    outer loop
      vertex 3.5 -10 -7
      vertex 2.94439 -8.10776 -7
      vertex 5 15 -7
    endloop
  endfacet
  facet normal -2.22045e-016 0 -1
    outer loop
      vertex -0.498102 -6.53562 -7
      vertex -3.35823 9.01394 -7
      vertex 1.45395 -6.81629 -7
    endloop
  endfacet
  facet normal -2.22045e-016 0 -1
    outer loop
      vertex -3.35823 -9.01394 -7
      vertex -5 15 -7
      vertex -2.29201 -7.35488 -7
    endloop
  endfacet
  facet normal -2.22045e-016 0 -1
    outer loop
      vertex -5 -15 -7
      vertex -5 15 -7
      vertex -3.35823 -9.01394 -7
    endloop
  endfacet
  facet normal -2.22045e-016 0 -1
    outer loop
      vertex -0.498102 6.53562 -7
      vertex 2.94439 -8.10776 -7
      vertex -2.29201 7.35488 -7
    endloop
  endfacet
  facet normal -2.22045e-016 0 -1
    outer loop
      vertex -5 -15 -7
      vertex -3.35823 -10.9861 -7
      vertex -2.29201 -12.6451 -7
    endloop
  endfacet
  facet normal -2.22045e-016 0 -1
    outer loop
      vertex -5 -15 -7
      vertex -2.29201 -12.6451 -7
      vertex -0.498102 -13.4644 -7
    endloop
  endfacet
  facet normal -2.22045e-016 0 -1
    outer loop
      vertex -3.35823 9.01394 -7
      vertex -5 15 -7
      vertex -3.35823 10.9861 -7
    endloop
  endfacet
  facet normal -2.22045e-016 0 -1
    outer loop
      vertex 2.94439 -8.10776 -7
      vertex -0.498102 6.53562 -7
      vertex 1.45395 6.81629 -7
    endloop
  endfacet
  facet normal -2.22045e-016 0 -1
    outer loop
      vertex 2.94439 -8.10776 -7
      vertex 1.45395 6.81629 -7
      vertex 2.94439 8.10776 -7
    endloop
  endfacet
  facet normal -2.22045e-016 0 -1
    outer loop
      vertex 2.94439 -8.10776 -7
      vertex 2.94439 8.10776 -7
      vertex 5 15 -7
    endloop
  endfacet
  facet normal -2.22045e-016 0 -1
    outer loop
      vertex 2.94439 8.10776 -7
      vertex 3.5 10 -7
      vertex 5 15 -7
    endloop
  endfacet
  facet normal -2.22045e-016 0 -1
    outer loop
      vertex -3.35823 10.9861 -7
      vertex -5 15 -7
      vertex -2.29201 12.6451 -7
    endloop
  endfacet
  facet normal -2.22045e-016 0 -1
    outer loop
      vertex -2.29201 12.6451 -7
      vertex -5 15 -7
      vertex -0.498102 13.4644 -7
    endloop
  endfacet
  facet normal -2.22045e-016 0 -1
    outer loop
      vertex -0.498102 13.4644 -7
      vertex -5 15 -7
      vertex 1.45395 13.1837 -7
    endloop
  endfacet
  facet normal -2.22045e-016 0 -1
    outer loop
      vertex 2.94439 11.8922 -7
      vertex 1.45395 13.1837 -7
      vertex 5 15 -7
    endloop
  endfacet
  facet normal -2.22045e-016 0 -1
    outer loop
      vertex -2.29201 7.35488 -7
      vertex 2.94439 -8.10776 -7
      vertex 1.45395 -6.81629 -7
    endloop
  endfacet
  facet normal -2.22045e-016 0 -1
    outer loop
      vertex 2.94439 11.8922 -7
      vertex 5 15 -7
      vertex 3.5 10 -7
    endloop
  endfacet
  facet normal -2.22045e-016 0 -1
    outer loop
      vertex 3.5 -10 -7
      vertex 5 -15 -7
      vertex 2.94439 -11.8922 -7
    endloop
  endfacet
  facet normal -2.22045e-016 0 -1
    outer loop
      vertex -0.498102 -6.53562 -7
      vertex -5 15 -7
      vertex -3.35823 9.01394 -7
    endloop
  endfacet
  facet normal 0 1 0
    outer loop
      vertex -5 15 7
      vertex 5 15 7
      vertex -5 15 -7
    endloop
  endfacet
  facet normal 0 1 0
    outer loop
      vertex -5 15 -7
      vertex 5 15 7
      vertex 5 15 -7
    endloop
  endfacet
  facet normal 2.22045e-016 0 1
    outer loop
      vertex -0.445042 8.05014 7
      vertex -5 4.1 7
      vertex 5 4.1 7
    endloop
  endfacet
  facet normal 2.22045e-016 0 1
    outer loop
      vertex 5 15 7
      vertex 1.24698 8.43634 7
      vertex 5 4.1 7
    endloop
  endfacet
  facet normal 2.22045e-016 0 1
    outer loop
      vertex -1.80194 9.13223 7
      vertex -5 4.1 7
      vertex -0.445042 8.05014 7
    endloop
  endfacet
  facet normal 2.22045e-016 0 1
    outer loop
      vertex -1.80194 10.8678 7
      vertex -0.445042 11.9499 7
      vertex -5 15 7
    endloop
  endfacet
  facet normal 2.22045e-016 0 1
    outer loop
      vertex -5 15 7
      vertex -5 4.1 7
      vertex -1.80194 9.13223 7
    endloop
  endfacet
  facet normal 2.22045e-016 0 1
    outer loop
      vertex -1.80194 9.13223 7
      vertex -1.80194 10.8678 7
      vertex -5 15 7
    endloop
  endfacet
  facet normal 2.22045e-016 0 1
    outer loop
      vertex 5 15 7
      vertex -5 15 7
      vertex -0.445042 11.9499 7
    endloop
  endfacet
  facet normal 2.22045e-016 0 1
    outer loop
      vertex 5 15 7
      vertex -0.445042 11.9499 7
      vertex 1.24698 11.5637 7
    endloop
  endfacet
  facet normal 2.22045e-016 0 1
    outer loop
      vertex 5 15 7
      vertex 2 10 7
      vertex 1.24698 8.43634 7
    endloop
  endfacet
  facet normal 2.22045e-016 0 1
    outer loop
      vertex 5 15 7
      vertex 1.24698 11.5637 7
      vertex 2 10 7
    endloop
  endfacet
  facet normal 2.22045e-016 0 1
    outer loop
      vertex 1.24698 8.43634 7
      vertex -0.445042 8.05014 7
      vertex 5 4.1 7
    endloop
  endfacet
  facet normal 0 -1 0
    outer loop
      vertex -5 4.1 3
      vertex 5 4.1 3
      vertex 5 4.1 7
    endloop
  endfacet
  facet normal 0 -1 0
    outer loop
      vertex -5 4.1 7
      vertex -5 4.1 3
      vertex 5 4.1 7
    endloop
  endfacet
  facet normal 2.17641e-017 -0.995185 0.0980167
    outer loop
      vertex -5 4.02122 2.20013
      vertex 5 4.02122 2.20013
      vertex 5 4.1 3
    endloop
  endfacet
  facet normal 2.17641e-017 -0.995185 0.0980167
    outer loop
      vertex -5 4.1 3
      vertex -5 4.02122 2.20013
      vertex 5 4.1 3
    endloop
  endfacet
  facet normal 6.44562e-017 -0.95694 0.290285
    outer loop
      vertex -5 3.78791 1.431
      vertex 5 3.78791 1.431
      vertex 5 4.02122 2.20013
    endloop
  endfacet
  facet normal 6.44562e-017 -0.95694 0.290285
    outer loop
      vertex -5 4.02122 2.20013
      vertex -5 3.78791 1.431
      vertex 5 4.02122 2.20013
    endloop
  endfacet
  facet normal 1.04671e-016 -0.881921 0.471397
    outer loop
      vertex -5 3.40902 0.722162
      vertex 5 3.40902 0.722162
      vertex 5 3.78791 1.431
    endloop
  endfacet
  facet normal 1.04671e-016 -0.881921 0.471397
    outer loop
      vertex -5 3.78791 1.431
      vertex -5 3.40902 0.722162
      vertex 5 3.78791 1.431
    endloop
  endfacet
  facet normal 1.40863e-016 -0.773011 0.634393
    outer loop
      vertex -5 2.89914 0.100862
      vertex 5 2.89914 0.100862
      vertex 5 3.40902 0.722162
    endloop
  endfacet
  facet normal 1.40863e-016 -0.773011 0.634393
    outer loop
      vertex -5 3.40902 0.722162
      vertex -5 2.89914 0.100862
      vertex 5 3.40902 0.722162
    endloop
  endfacet
  facet normal 1.71643e-016 -0.634393 0.773011
    outer loop
      vertex -5 2.27784 -0.409025
      vertex 5 2.27784 -0.409025
      vertex 5 2.89914 0.100862
    endloop
  endfacet
  facet normal 1.71643e-016 -0.634393 0.773011
    outer loop
      vertex -5 2.89914 0.100862
      vertex -5 2.27784 -0.409025
      vertex 5 2.89914 0.100862
    endloop
  endfacet
  facet normal 1.95826e-016 -0.471397 0.881921
    outer loop
      vertex -5 1.569 -0.787906
      vertex 5 1.569 -0.787906
      vertex 5 2.27784 -0.409025
    endloop
  endfacet
  facet normal 1.95826e-016 -0.471397 0.881921
    outer loop
      vertex -5 2.27784 -0.409025
      vertex -5 1.569 -0.787906
      vertex 5 2.27784 -0.409025
    endloop
  endfacet
  facet normal 2.12483e-016 -0.290285 0.95694
    outer loop
      vertex -5 0.79987 -1.02122
      vertex 5 0.79987 -1.02122
      vertex 5 1.569 -0.787906
    endloop
  endfacet
  facet normal 2.12483e-016 -0.290285 0.95694
    outer loop
      vertex -5 1.569 -0.787906
      vertex -5 0.79987 -1.02122
      vertex 5 1.569 -0.787906
    endloop
  endfacet
  facet normal 2.20975e-016 -0.0980167 0.995185
    outer loop
      vertex -5 0 -1.1
      vertex 5 0 -1.1
      vertex 5 0.79987 -1.02122
    endloop
  endfacet
  facet normal 2.20975e-016 -0.0980167 0.995185
    outer loop
      vertex -5 0.79987 -1.02122
      vertex -5 0 -1.1
      vertex 5 0.79987 -1.02122
    endloop
  endfacet
  facet normal 2.20975e-016 0.0980167 0.995185
    outer loop
      vertex 5 -0.79987 -1.02122
      vertex 5 0 -1.1
      vertex -5 0 -1.1
    endloop
  endfacet
  facet normal 2.20975e-016 0.0980167 0.995185
    outer loop
      vertex -5 -0.79987 -1.02122
      vertex 5 -0.79987 -1.02122
      vertex -5 0 -1.1
    endloop
  endfacet
  facet normal 2.12483e-016 0.290285 0.95694
    outer loop
      vertex 5 -1.569 -0.787906
      vertex 5 -0.79987 -1.02122
      vertex -5 -0.79987 -1.02122
    endloop
  endfacet
  facet normal 2.12483e-016 0.290285 0.95694
    outer loop
      vertex -5 -1.569 -0.787906
      vertex 5 -1.569 -0.787906
      vertex -5 -0.79987 -1.02122
    endloop
  endfacet
  facet normal 1.95826e-016 0.471397 0.881921
    outer loop
      vertex 5 -2.27784 -0.409025
      vertex 5 -1.569 -0.787906
      vertex -5 -1.569 -0.787906
    endloop
  endfacet
  facet normal 1.95826e-016 0.471397 0.881921
    outer loop
      vertex -5 -2.27784 -0.409025
      vertex 5 -2.27784 -0.409025
      vertex -5 -1.569 -0.787906
    endloop
  endfacet
  facet normal 1.71643e-016 0.634393 0.773011
    outer loop
      vertex 5 -2.89914 0.100862
      vertex 5 -2.27784 -0.409025
      vertex -5 -2.27784 -0.409025
    endloop
  endfacet
  facet normal 1.71643e-016 0.634393 0.773011
    outer loop
      vertex -5 -2.89914 0.100862
      vertex 5 -2.89914 0.100862
      vertex -5 -2.27784 -0.409025
    endloop
  endfacet
  facet normal 1.40863e-016 0.773011 0.634393
    outer loop
      vertex 5 -2.89914 0.100862
      vertex -5 -2.89914 0.100862
      vertex 5 -3.40902 0.722162
    endloop
  endfacet
  facet normal 1.40863e-016 0.773011 0.634393
    outer loop
      vertex 5 -3.40902 0.722162
      vertex -5 -2.89914 0.100862
      vertex -5 -3.40902 0.722162
    endloop
  endfacet
  facet normal 1.04671e-016 0.881921 0.471397
    outer loop
      vertex 5 -3.40902 0.722162
      vertex -5 -3.40902 0.722162
      vertex 5 -3.78791 1.431
    endloop
  endfacet
  facet normal 1.04671e-016 0.881921 0.471397
    outer loop
      vertex 5 -3.78791 1.431
      vertex -5 -3.40902 0.722162
      vertex -5 -3.78791 1.431
    endloop
  endfacet
  facet normal 6.44562e-017 0.95694 0.290285
    outer loop
      vertex 5 -3.78791 1.431
      vertex -5 -3.78791 1.431
      vertex 5 -4.02122 2.20013
    endloop
  endfacet
  facet normal 6.44562e-017 0.95694 0.290285
    outer loop
      vertex 5 -4.02122 2.20013
      vertex -5 -3.78791 1.431
      vertex -5 -4.02122 2.20013
    endloop
  endfacet
  facet normal 2.17641e-017 0.995185 0.0980167
    outer loop
      vertex 5 -4.02122 2.20013
      vertex -5 -4.02122 2.20013
      vertex 5 -4.1 3
    endloop
  endfacet
  facet normal 2.17641e-017 0.995185 0.0980167
    outer loop
      vertex 5 -4.1 3
      vertex -5 -4.02122 2.20013
      vertex -5 -4.1 3
    endloop
  endfacet
  facet normal -0.472528 0.545326 -0.692341
    outer loop
      vertex 1.4498 -13.1746 -2
      vertex 0.764403 -11.6738 -0.350094
      vertex 2.93597 -11.8868 -2
    endloop
  endfacet
  facet normal -0.472528 0.545326 -0.692341
    outer loop
      vertex 2.93597 -11.8868 -2
      vertex 0.764403 -11.6738 -0.350094
      vertex 1.24698 -11.5637 -0.5927
    endloop
  endfacet
  facet normal -0.472528 0.545326 -0.692341
    outer loop
      vertex 2.93597 -11.8868 -2
      vertex 1.24698 -11.5637 -0.5927
      vertex 1.52731 -10.9815 -0.325521
    endloop
  endfacet
  facet normal -0.692341 0.20329 -0.692341
    outer loop
      vertex 3.49 -10 -2
      vertex 2.93597 -11.8868 -2
      vertex 2 -10 -0.51
    endloop
  endfacet
  facet normal -0.692341 0.20329 -0.692341
    outer loop
      vertex 2 -10 -0.51
      vertex 2.93597 -11.8868 -2
      vertex 1.52731 -10.9815 -0.325521
    endloop
  endfacet
  facet normal -0.692341 -0.20329 -0.692341
    outer loop
      vertex 3.49 -10 -2
      vertex 2 -10 -0.51
      vertex 2.93597 -8.11316 -2
    endloop
  endfacet
  facet normal -0.692341 -0.20329 -0.692341
    outer loop
      vertex 2.93597 -8.11316 -2
      vertex 2 -10 -0.51
      vertex 1.52731 -9.01846 -0.325521
    endloop
  endfacet
  facet normal 0.299751 0.656363 -0.692341
    outer loop
      vertex -0.274759 -11.911 -0.440641
      vertex -0.496679 -13.4545 -2
      vertex -0.445042 -11.9499 -0.551212
    endloop
  endfacet
  facet normal 0.299751 0.656363 -0.692341
    outer loop
      vertex -0.445042 -11.9499 -0.551212
      vertex -0.496679 -13.4545 -2
      vertex -2.28546 -12.6376 -2
    endloop
  endfacet
  facet normal 0.299751 0.656363 -0.692341
    outer loop
      vertex -0.445042 -11.9499 -0.551212
      vertex -2.28546 -12.6376 -2
      vertex -1.181 -11.3629 -0.313438
    endloop
  endfacet
  facet normal -0.10269 0.714226 -0.692341
    outer loop
      vertex -0.496679 -13.4545 -2
      vertex -0.274759 -11.911 -0.440641
      vertex 1.4498 -13.1746 -2
    endloop
  endfacet
  facet normal -0.10269 0.714226 -0.692341
    outer loop
      vertex 1.4498 -13.1746 -2
      vertex -0.274759 -11.911 -0.440641
      vertex 0.764403 -11.6738 -0.350094
    endloop
  endfacet
  facet normal -0.472528 -0.545326 -0.692341
    outer loop
      vertex 0.764403 -8.32619 -0.350094
      vertex 1.4498 -6.82538 -2
      vertex 1.24698 -8.43634 -0.5927
    endloop
  endfacet
  facet normal -0.472528 -0.545326 -0.692341
    outer loop
      vertex 1.24698 -8.43634 -0.5927
      vertex 1.4498 -6.82538 -2
      vertex 2.93597 -8.11316 -2
    endloop
  endfacet
  facet normal -0.472528 -0.545326 -0.692341
    outer loop
      vertex 1.24698 -8.43634 -0.5927
      vertex 2.93597 -8.11316 -2
      vertex 1.52731 -9.01846 -0.325521
    endloop
  endfacet
  facet normal -0.10269 -0.714226 -0.692341
    outer loop
      vertex -0.274759 -8.08901 -0.440641
      vertex -0.496679 -6.54552 -2
      vertex 1.4498 -6.82538 -2
    endloop
  endfacet
  facet normal -0.10269 -0.714226 -0.692341
    outer loop
      vertex 0.764403 -8.32619 -0.350094
      vertex -0.274759 -8.08901 -0.440641
      vertex 1.4498 -6.82538 -2
    endloop
  endfacet
  facet normal 0.299751 -0.656363 -0.692341
    outer loop
      vertex -0.496679 -6.54552 -2
      vertex -0.274759 -8.08901 -0.440641
      vertex -2.28546 -7.36243 -2
    endloop
  endfacet
  facet normal 0.299751 -0.656363 -0.692341
    outer loop
      vertex -2.28546 -7.36243 -2
      vertex -0.274759 -8.08901 -0.440641
      vertex -0.445042 -8.05014 -0.551212
    endloop
  endfacet
  facet normal 0.299751 -0.656363 -0.692341
    outer loop
      vertex -2.28546 -7.36243 -2
      vertex -0.445042 -8.05014 -0.551212
      vertex -1.181 -8.63705 -0.313438
    endloop
  endfacet
  facet normal 0.607024 -0.39011 -0.692341
    outer loop
      vertex -1.80194 -9.4709 -0.388011
      vertex -3.34863 -9.01675 -2
      vertex -1.80194 -9.13223 -0.57884
    endloop
  endfacet
  facet normal 0.607024 -0.39011 -0.692341
    outer loop
      vertex -1.80194 -9.13223 -0.57884
      vertex -3.34863 -9.01675 -2
      vertex -2.28546 -7.36243 -2
    endloop
  endfacet
  facet normal 0.607024 -0.39011 -0.692341
    outer loop
      vertex -1.80194 -9.13223 -0.57884
      vertex -2.28546 -7.36243 -2
      vertex -1.181 -8.63705 -0.313438
    endloop
  endfacet
  facet normal 0.607024 0.39011 -0.692341
    outer loop
      vertex -3.34863 -10.9832 -2
      vertex -1.80194 -10.5291 -0.388011
      vertex -2.28546 -12.6376 -2
    endloop
  endfacet
  facet normal 0.607024 0.39011 -0.692341
    outer loop
      vertex -2.28546 -12.6376 -2
      vertex -1.80194 -10.5291 -0.388011
      vertex -1.80194 -10.8678 -0.57884
    endloop
  endfacet
  facet normal 0.607024 0.39011 -0.692341
    outer loop
      vertex -2.28546 -12.6376 -2
      vertex -1.80194 -10.8678 -0.57884
      vertex -1.181 -11.3629 -0.313438
    endloop
  endfacet
  facet normal 0.72157 0 -0.692341
    outer loop
      vertex -3.34863 -10.9832 -2
      vertex -3.34863 -9.01675 -2
      vertex -1.80194 -9.4709 -0.388011
    endloop
  endfacet
  facet normal 0.72157 0 -0.692341
    outer loop
      vertex -1.80194 -10.5291 -0.388011
      vertex -3.34863 -10.9832 -2
      vertex -1.80194 -9.4709 -0.388011
    endloop
  endfacet
  facet normal 0.415415 0.909632 -1.84481e-016
    outer loop
      vertex -0.498102 -13.4644 -7
      vertex -2.29201 -12.6451 -7
      vertex -0.498102 -13.4644 -2
    endloop
  endfacet
  facet normal 0.415415 0.909632 -1.84481e-016
    outer loop
      vertex -0.498102 -13.4644 -2
      vertex -2.29201 -12.6451 -7
      vertex -2.29201 -12.6451 -2
    endloop
  endfacet
  facet normal -0.142315 0.989821 6.32005e-017
    outer loop
      vertex 1.45395 -13.1837 -7
      vertex -0.498102 -13.4644 -7
      vertex 1.45395 -13.1837 -2
    endloop
  endfacet
  facet normal -0.142315 0.989821 6.32005e-017
    outer loop
      vertex 1.45395 -13.1837 -2
      vertex -0.498102 -13.4644 -7
      vertex -0.498102 -13.4644 -2
    endloop
  endfacet
  facet normal 0.841254 0.54064 -3.73592e-016
    outer loop
      vertex -2.29201 -12.6451 -2
      vertex -2.29201 -12.6451 -7
      vertex -3.35823 -10.9861 -7
    endloop
  endfacet
  facet normal 0.841254 0.54064 -3.73592e-016
    outer loop
      vertex -3.35822 -10.9861 -2
      vertex -2.29201 -12.6451 -2
      vertex -3.35823 -10.9861 -7
    endloop
  endfacet
  facet normal 1 0 -4.44089e-016
    outer loop
      vertex -3.35823 -10.9861 -7
      vertex -3.35823 -9.01394 -7
      vertex -3.35822 -9.01394 -2
    endloop
  endfacet
  facet normal 1 0 -4.44089e-016
    outer loop
      vertex -3.35822 -10.9861 -2
      vertex -3.35823 -10.9861 -7
      vertex -3.35822 -9.01394 -2
    endloop
  endfacet
  facet normal 0.841254 -0.54064 -3.73592e-016
    outer loop
      vertex -3.35823 -9.01394 -7
      vertex -2.29201 -7.35488 -7
      vertex -2.29201 -7.35488 -2
    endloop
  endfacet
  facet normal 0.841254 -0.54064 -3.73592e-016
    outer loop
      vertex -3.35822 -9.01394 -2
      vertex -3.35823 -9.01394 -7
      vertex -2.29201 -7.35488 -2
    endloop
  endfacet
  facet normal 0.415415 -0.909632 -1.84481e-016
    outer loop
      vertex -2.29201 -7.35488 -7
      vertex -0.498102 -6.53562 -7
      vertex -0.498102 -6.53562 -2
    endloop
  endfacet
  facet normal 0.415415 -0.909632 -1.84481e-016
    outer loop
      vertex -2.29201 -7.35488 -2
      vertex -2.29201 -7.35488 -7
      vertex -0.498102 -6.53562 -2
    endloop
  endfacet
  facet normal -0.142315 -0.989821 6.32005e-017
    outer loop
      vertex -0.498102 -6.53562 -7
      vertex 1.45395 -6.81629 -7
      vertex 1.45395 -6.81629 -2
    endloop
  endfacet
  facet normal -0.142315 -0.989821 6.32005e-017
    outer loop
      vertex -0.498102 -6.53562 -2
      vertex -0.498102 -6.53562 -7
      vertex 1.45395 -6.81629 -2
    endloop
  endfacet
  facet normal -0.654861 -0.755749 2.90817e-016
    outer loop
      vertex 1.45395 -6.81629 -7
      vertex 2.94439 -8.10776 -7
      vertex 2.94439 -8.10776 -2
    endloop
  endfacet
  facet normal -0.654861 -0.755749 2.90817e-016
    outer loop
      vertex 1.45395 -6.81629 -2
      vertex 1.45395 -6.81629 -7
      vertex 2.94439 -8.10776 -2
    endloop
  endfacet
  facet normal -0.959493 -0.281733 4.261e-016
    outer loop
      vertex 3.5 -10 -7
      vertex 3.5 -10 -2
      vertex 2.94439 -8.10776 -7
    endloop
  endfacet
  facet normal -0.959493 -0.281733 4.261e-016
    outer loop
      vertex 2.94439 -8.10776 -7
      vertex 3.5 -10 -2
      vertex 2.94439 -8.10776 -2
    endloop
  endfacet
  facet normal -0.959493 0.281733 4.261e-016
    outer loop
      vertex 3.5 -10 -7
      vertex 2.94439 -11.8922 -7
      vertex 3.5 -10 -2
    endloop
  endfacet
  facet normal -0.959493 0.281733 4.261e-016
    outer loop
      vertex 3.5 -10 -2
      vertex 2.94439 -11.8922 -7
      vertex 2.94439 -11.8922 -2
    endloop
  endfacet
  facet normal -0.654861 0.755749 2.90817e-016
    outer loop
      vertex 2.94439 -11.8922 -7
      vertex 1.45395 -13.1837 -7
      vertex 2.94439 -11.8922 -2
    endloop
  endfacet
  facet normal -0.654861 0.755749 2.90817e-016
    outer loop
      vertex 2.94439 -11.8922 -2
      vertex 1.45395 -13.1837 -7
      vertex 1.45395 -13.1837 -2
    endloop
  endfacet
  facet normal 0.415415 0.909632 -1.84481e-016
    outer loop
      vertex -0.498102 6.53562 -7
      vertex -2.29201 7.35488 -7
      vertex -0.498102 6.53562 -2
    endloop
  endfacet
  facet normal 0.415415 0.909632 -1.84481e-016
    outer loop
      vertex -0.498102 6.53562 -2
      vertex -2.29201 7.35488 -7
      vertex -2.29201 7.35488 -2
    endloop
  endfacet
  facet normal -0.142315 0.989821 6.32005e-017
    outer loop
      vertex 1.45395 6.81629 -7
      vertex -0.498102 6.53562 -7
      vertex 1.45395 6.81629 -2
    endloop
  endfacet
  facet normal -0.142315 0.989821 6.32005e-017
    outer loop
      vertex 1.45395 6.81629 -2
      vertex -0.498102 6.53562 -7
      vertex -0.498102 6.53562 -2
    endloop
  endfacet
  facet normal 0.841254 0.54064 -3.73592e-016
    outer loop
      vertex -2.29201 7.35488 -2
      vertex -2.29201 7.35488 -7
      vertex -3.35823 9.01394 -7
    endloop
  endfacet
  facet normal 0.841254 0.54064 -3.73592e-016
    outer loop
      vertex -3.35822 9.01394 -2
      vertex -2.29201 7.35488 -2
      vertex -3.35823 9.01394 -7
    endloop
  endfacet
  facet normal 1 0 -4.44089e-016
    outer loop
      vertex -3.35823 9.01394 -7
      vertex -3.35823 10.9861 -7
      vertex -3.35822 10.9861 -2
    endloop
  endfacet
  facet normal 1 0 -4.44089e-016
    outer loop
      vertex -3.35822 9.01394 -2
      vertex -3.35823 9.01394 -7
      vertex -3.35822 10.9861 -2
    endloop
  endfacet
  facet normal 0.841254 -0.54064 -3.73592e-016
    outer loop
      vertex -3.35823 10.9861 -7
      vertex -2.29201 12.6451 -7
      vertex -2.29201 12.6451 -2
    endloop
  endfacet
  facet normal 0.841254 -0.54064 -3.73592e-016
    outer loop
      vertex -3.35822 10.9861 -2
      vertex -3.35823 10.9861 -7
      vertex -2.29201 12.6451 -2
    endloop
  endfacet
  facet normal 0.415415 -0.909632 -1.84481e-016
    outer loop
      vertex -2.29201 12.6451 -7
      vertex -0.498102 13.4644 -7
      vertex -0.498102 13.4644 -2
    endloop
  endfacet
  facet normal 0.415415 -0.909632 -1.84481e-016
    outer loop
      vertex -2.29201 12.6451 -2
      vertex -2.29201 12.6451 -7
      vertex -0.498102 13.4644 -2
    endloop
  endfacet
  facet normal -0.142315 -0.989821 6.32005e-017
    outer loop
      vertex -0.498102 13.4644 -7
      vertex 1.45395 13.1837 -7
      vertex 1.45395 13.1837 -2
    endloop
  endfacet
  facet normal -0.142315 -0.989821 6.32005e-017
    outer loop
      vertex -0.498102 13.4644 -2
      vertex -0.498102 13.4644 -7
      vertex 1.45395 13.1837 -2
    endloop
  endfacet
  facet normal -0.654861 -0.755749 2.90817e-016
    outer loop
      vertex 1.45395 13.1837 -7
      vertex 2.94439 11.8922 -7
      vertex 2.94439 11.8922 -2
    endloop
  endfacet
  facet normal -0.654861 -0.755749 2.90817e-016
    outer loop
      vertex 1.45395 13.1837 -2
      vertex 1.45395 13.1837 -7
      vertex 2.94439 11.8922 -2
    endloop
  endfacet
  facet normal -0.959493 -0.281733 4.261e-016
    outer loop
      vertex 3.5 10 -7
      vertex 3.5 10 -2
      vertex 2.94439 11.8922 -7
    endloop
  endfacet
  facet normal -0.959493 -0.281733 4.261e-016
    outer loop
      vertex 2.94439 11.8922 -7
      vertex 3.5 10 -2
      vertex 2.94439 11.8922 -2
    endloop
  endfacet
  facet normal -0.959493 0.281733 4.261e-016
    outer loop
      vertex 3.5 10 -7
      vertex 2.94439 8.10776 -7
      vertex 3.5 10 -2
    endloop
  endfacet
  facet normal -0.959493 0.281733 4.261e-016
    outer loop
      vertex 3.5 10 -2
      vertex 2.94439 8.10776 -7
      vertex 2.94439 8.10776 -2
    endloop
  endfacet
  facet normal -0.654861 0.755749 2.90817e-016
    outer loop
      vertex 2.94439 8.10776 -7
      vertex 1.45395 6.81629 -7
      vertex 2.94439 8.10776 -2
    endloop
  endfacet
  facet normal -0.654861 0.755749 2.90817e-016
    outer loop
      vertex 2.94439 8.10776 -2
      vertex 1.45395 6.81629 -7
      vertex 1.45395 6.81629 -2
    endloop
  endfacet
  facet normal -0.222521 0.974928 9.88192e-017
    outer loop
      vertex 1.24698 8.43634 -0.5927
      vertex 0.764403 8.32619 -0.350094
      vertex 1.24698 8.43634 7
    endloop
  endfacet
  facet normal -0.222521 0.974928 9.88192e-017
    outer loop
      vertex 1.24698 8.43634 7
      vertex 0.764403 8.32619 -0.350094
      vertex -0.274759 8.08901 -0.440641
    endloop
  endfacet
  facet normal -0.222521 0.974928 9.88192e-017
    outer loop
      vertex -0.274759 8.08901 -0.440641
      vertex -0.445042 8.05014 -0.551212
      vertex 1.24698 8.43634 7
    endloop
  endfacet
  facet normal -0.222521 0.974928 9.88192e-017
    outer loop
      vertex 1.24698 8.43634 7
      vertex -0.445042 8.05014 -0.551212
      vertex -0.445042 8.05014 7
    endloop
  endfacet
  facet normal -0.900969 0.433884 4.00111e-016
    outer loop
      vertex 2 10 -0.51
      vertex 1.52731 9.01846 -0.325521
      vertex 2 10 7
    endloop
  endfacet
  facet normal -0.900969 0.433884 4.00111e-016
    outer loop
      vertex 2 10 7
      vertex 1.52731 9.01846 -0.325521
      vertex 1.24698 8.43634 -0.5927
    endloop
  endfacet
  facet normal -0.900969 0.433884 4.00111e-016
    outer loop
      vertex 2 10 7
      vertex 1.24698 8.43634 -0.5927
      vertex 1.24698 8.43634 7
    endloop
  endfacet
  facet normal -0.900969 -0.433884 4.00111e-016
    outer loop
      vertex 1.24698 11.5637 -0.5927
      vertex 1.52731 10.9815 -0.325521
      vertex 1.24698 11.5637 7
    endloop
  endfacet
  facet normal -0.900969 -0.433884 4.00111e-016
    outer loop
      vertex 1.24698 11.5637 7
      vertex 1.52731 10.9815 -0.325521
      vertex 2 10 -0.51
    endloop
  endfacet
  facet normal -0.900969 -0.433884 4.00111e-016
    outer loop
      vertex 1.24698 11.5637 7
      vertex 2 10 -0.51
      vertex 2 10 7
    endloop
  endfacet
  facet normal -0.222521 -0.974928 9.88192e-017
    outer loop
      vertex -0.445042 11.9499 7
      vertex -0.445042 11.9499 -0.551212
      vertex -0.274759 11.911 -0.440641
    endloop
  endfacet
  facet normal -0.222521 -0.974928 9.88192e-017
    outer loop
      vertex 0.764403 11.6738 -0.350094
      vertex -0.445042 11.9499 7
      vertex -0.274759 11.911 -0.440641
    endloop
  endfacet
  facet normal -0.222521 -0.974928 9.88192e-017
    outer loop
      vertex 0.764403 11.6738 -0.350094
      vertex 1.24698 11.5637 -0.5927
      vertex -0.445042 11.9499 7
    endloop
  endfacet
  facet normal -0.222521 -0.974928 9.88192e-017
    outer loop
      vertex 1.24698 11.5637 -0.5927
      vertex 1.24698 11.5637 7
      vertex -0.445042 11.9499 7
    endloop
  endfacet
  facet normal 0.62349 -0.781831 -2.76885e-016
    outer loop
      vertex -1.80194 10.8678 -0.57884
      vertex -1.181 11.3629 -0.313438
      vertex -0.445042 11.9499 7
    endloop
  endfacet
  facet normal 0.62349 -0.781831 -2.76885e-016
    outer loop
      vertex -0.445042 11.9499 7
      vertex -1.181 11.3629 -0.313438
      vertex -0.445042 11.9499 -0.551212
    endloop
  endfacet
  facet normal 0.62349 -0.781831 -2.76885e-016
    outer loop
      vertex -1.80194 10.8678 -0.57884
      vertex -0.445042 11.9499 7
      vertex -1.80194 10.8678 7
    endloop
  endfacet
  facet normal 1 0 -4.44089e-016
    outer loop
      vertex -1.80194 10.8678 7
      vertex -1.80194 9.4709 -0.388011
      vertex -1.80194 10.5291 -0.388011
    endloop
  endfacet
  facet normal 1 0 -4.44089e-016
    outer loop
      vertex -1.80194 9.13223 -0.57884
      vertex -1.80194 9.4709 -0.388011
      vertex -1.80194 10.8678 7
    endloop
  endfacet
  facet normal 1 0 -4.44089e-016
    outer loop
      vertex -1.80194 10.8678 -0.57884
      vertex -1.80194 10.8678 7
      vertex -1.80194 10.5291 -0.388011
    endloop
  endfacet
  facet normal 1 0 -4.44089e-016
    outer loop
      vertex -1.80194 10.8678 7
      vertex -1.80194 9.13223 7
      vertex -1.80194 9.13223 -0.57884
    endloop
  endfacet
  facet normal 0.62349 0.781831 -2.76885e-016
    outer loop
      vertex -1.181 8.63705 -0.313438
      vertex -1.80194 9.13223 -0.57884
      vertex -1.80194 9.13223 7
    endloop
  endfacet
  facet normal 0.62349 0.781831 -2.76885e-016
    outer loop
      vertex -1.181 8.63705 -0.313438
      vertex -1.80194 9.13223 7
      vertex -0.445042 8.05014 -0.551212
    endloop
  endfacet
  facet normal 0.62349 0.781831 -2.76885e-016
    outer loop
      vertex -1.80194 9.13223 7
      vertex -0.445042 8.05014 7
      vertex -0.445042 8.05014 -0.551212
    endloop
  endfacet
  facet normal -4.44089e-016 0 -1
    outer loop
      vertex -3.34863 -9.01675 -2
      vertex -3.35822 -9.01394 -2
      vertex -2.28546 -7.36243 -2
    endloop
  endfacet
  facet normal -4.44089e-016 0 -1
    outer loop
      vertex -0.496679 -6.54552 -2
      vertex -0.498102 -6.53562 -2
      vertex 1.45395 -6.81629 -2
    endloop
  endfacet
  facet normal -4.44089e-016 0 -1
    outer loop
      vertex 1.4498 -6.82538 -2
      vertex 1.45395 -6.81629 -2
      vertex 2.94439 -8.10776 -2
    endloop
  endfacet
  facet normal -4.44089e-016 0 -1
    outer loop
      vertex 2.93597 -8.11316 -2
      vertex 2.94439 -8.10776 -2
      vertex 3.5 -10 -2
    endloop
  endfacet
  facet normal -4.44089e-016 0 -1
    outer loop
      vertex 2.93597 -11.8868 -2
      vertex 3.5 -10 -2
      vertex 2.94439 -11.8922 -2
    endloop
  endfacet
  facet normal -4.44089e-016 0 -1
    outer loop
      vertex 1.4498 -13.1746 -2
      vertex 2.94439 -11.8922 -2
      vertex 1.45395 -13.1837 -2
    endloop
  endfacet
  facet normal -4.44089e-016 0 -1
    outer loop
      vertex -0.496679 -13.4545 -2
      vertex 1.45395 -13.1837 -2
      vertex -0.498102 -13.4644 -2
    endloop
  endfacet
  facet normal -4.44089e-016 0 -1
    outer loop
      vertex -2.28546 -12.6376 -2
      vertex -0.498102 -13.4644 -2
      vertex -2.29201 -12.6451 -2
    endloop
  endfacet
  facet normal -4.44089e-016 0 -1
    outer loop
      vertex -3.34863 -10.9832 -2
      vertex -2.29201 -12.6451 -2
      vertex -3.35822 -10.9861 -2
    endloop
  endfacet
  facet normal -4.44089e-016 0 -1
    outer loop
      vertex -2.28546 -12.6376 -2
      vertex -2.29201 -12.6451 -2
      vertex -3.34863 -10.9832 -2
    endloop
  endfacet
  facet normal -4.44089e-016 0 -1
    outer loop
      vertex -3.35822 -9.01394 -2
      vertex -3.34863 -10.9832 -2
      vertex -3.35822 -10.9861 -2
    endloop
  endfacet
  facet normal -4.44089e-016 0 -1
    outer loop
      vertex 3.49 -10 -2
      vertex 3.5 -10 -2
      vertex 2.93597 -11.8868 -2
    endloop
  endfacet
  facet normal -4.44089e-016 0 -1
    outer loop
      vertex 1.4498 -6.82538 -2
      vertex 2.94439 -8.10776 -2
      vertex 2.93597 -8.11316 -2
    endloop
  endfacet
  facet normal -4.44089e-016 0 -1
    outer loop
      vertex -0.496679 -6.54552 -2
      vertex 1.45395 -6.81629 -2
      vertex 1.4498 -6.82538 -2
    endloop
  endfacet
  facet normal -4.44089e-016 0 -1
    outer loop
      vertex -2.28546 -7.36243 -2
      vertex -0.498102 -6.53562 -2
      vertex -0.496679 -6.54552 -2
    endloop
  endfacet
  facet normal -4.44089e-016 0 -1
    outer loop
      vertex -2.29201 -7.35488 -2
      vertex -0.498102 -6.53562 -2
      vertex -2.28546 -7.36243 -2
    endloop
  endfacet
  facet normal -4.44089e-016 0 -1
    outer loop
      vertex -2.29201 -7.35488 -2
      vertex -2.28546 -7.36243 -2
      vertex -3.35822 -9.01394 -2
    endloop
  endfacet
  facet normal -4.44089e-016 0 -1
    outer loop
      vertex -3.34863 -10.9832 -2
      vertex -3.35822 -9.01394 -2
      vertex -3.34863 -9.01675 -2
    endloop
  endfacet
  facet normal -4.44089e-016 0 -1
    outer loop
      vertex 2.93597 -8.11316 -2
      vertex 3.5 -10 -2
      vertex 3.49 -10 -2
    endloop
  endfacet
  facet normal -4.44089e-016 0 -1
    outer loop
      vertex 2.93597 -11.8868 -2
      vertex 2.94439 -11.8922 -2
      vertex 1.4498 -13.1746 -2
    endloop
  endfacet
  facet normal -4.44089e-016 0 -1
    outer loop
      vertex 1.4498 -13.1746 -2
      vertex 1.45395 -13.1837 -2
      vertex -0.496679 -13.4545 -2
    endloop
  endfacet
  facet normal -4.44089e-016 0 -1
    outer loop
      vertex -0.496679 -13.4545 -2
      vertex -0.498102 -13.4644 -2
      vertex -2.28546 -12.6376 -2
    endloop
  endfacet
  facet normal -4.44089e-016 0 -1
    outer loop
      vertex -3.34863 10.9832 -2
      vertex -3.35822 10.9861 -2
      vertex -2.28546 12.6376 -2
    endloop
  endfacet
  facet normal -4.44089e-016 0 -1
    outer loop
      vertex -0.496679 13.4545 -2
      vertex -0.498102 13.4644 -2
      vertex 1.45395 13.1837 -2
    endloop
  endfacet
  facet normal -4.44089e-016 0 -1
    outer loop
      vertex 1.4498 13.1746 -2
      vertex 1.45395 13.1837 -2
      vertex 2.94439 11.8922 -2
    endloop
  endfacet
  facet normal -4.44089e-016 0 -1
    outer loop
      vertex 2.93597 11.8868 -2
      vertex 2.94439 11.8922 -2
      vertex 3.5 10 -2
    endloop
  endfacet
  facet normal -4.44089e-016 0 -1
    outer loop
      vertex 2.93597 8.11316 -2
      vertex 3.5 10 -2
      vertex 2.94439 8.10776 -2
    endloop
  endfacet
  facet normal -4.44089e-016 0 -1
    outer loop
      vertex 1.4498 6.82538 -2
      vertex 2.94439 8.10776 -2
      vertex 1.45395 6.81629 -2
    endloop
  endfacet
  facet normal -4.44089e-016 0 -1
    outer loop
      vertex -0.496679 6.54552 -2
      vertex 1.45395 6.81629 -2
      vertex -0.498102 6.53562 -2
    endloop
  endfacet
  facet normal -4.44089e-016 0 -1
    outer loop
      vertex -2.28546 7.36243 -2
      vertex -0.498102 6.53562 -2
      vertex -2.29201 7.35488 -2
    endloop
  endfacet
  facet normal -4.44089e-016 0 -1
    outer loop
      vertex -3.34863 9.01675 -2
      vertex -2.29201 7.35488 -2
      vertex -3.35822 9.01394 -2
    endloop
  endfacet
  facet normal -4.44089e-016 0 -1
    outer loop
      vertex -2.28546 7.36243 -2
      vertex -2.29201 7.35488 -2
      vertex -3.34863 9.01675 -2
    endloop
  endfacet
  facet normal -4.44089e-016 0 -1
    outer loop
      vertex -3.35822 10.9861 -2
      vertex -3.34863 9.01675 -2
      vertex -3.35822 9.01394 -2
    endloop
  endfacet
  facet normal -4.44089e-016 0 -1
    outer loop
      vertex 3.49 10 -2
      vertex 3.5 10 -2
      vertex 2.93597 8.11316 -2
    endloop
  endfacet
  facet normal -4.44089e-016 0 -1
    outer loop
      vertex 1.4498 13.1746 -2
      vertex 2.94439 11.8922 -2
      vertex 2.93597 11.8868 -2
    endloop
  endfacet
  facet normal -4.44089e-016 0 -1
    outer loop
      vertex -0.496679 13.4545 -2
      vertex 1.45395 13.1837 -2
      vertex 1.4498 13.1746 -2
    endloop
  endfacet
  facet normal -4.44089e-016 0 -1
    outer loop
      vertex -2.28546 12.6376 -2
      vertex -0.498102 13.4644 -2
      vertex -0.496679 13.4545 -2
    endloop
  endfacet
  facet normal -4.44089e-016 0 -1
    outer loop
      vertex -2.29201 12.6451 -2
      vertex -0.498102 13.4644 -2
      vertex -2.28546 12.6376 -2
    endloop
  endfacet
  facet normal -4.44089e-016 0 -1
    outer loop
      vertex -2.29201 12.6451 -2
      vertex -2.28546 12.6376 -2
      vertex -3.35822 10.9861 -2
    endloop
  endfacet
  facet normal -4.44089e-016 0 -1
    outer loop
      vertex -3.34863 9.01675 -2
      vertex -3.35822 10.9861 -2
      vertex -3.34863 10.9832 -2
    endloop
  endfacet
  facet normal -4.44089e-016 0 -1
    outer loop
      vertex 2.93597 11.8868 -2
      vertex 3.5 10 -2
      vertex 3.49 10 -2
    endloop
  endfacet
  facet normal -4.44089e-016 0 -1
    outer loop
      vertex 2.93597 8.11316 -2
      vertex 2.94439 8.10776 -2
      vertex 1.4498 6.82538 -2
    endloop
  endfacet
  facet normal -4.44089e-016 0 -1
    outer loop
      vertex 1.4498 6.82538 -2
      vertex 1.45395 6.81629 -2
      vertex -0.496679 6.54552 -2
    endloop
  endfacet
  facet normal -4.44089e-016 0 -1
    outer loop
      vertex -0.496679 6.54552 -2
      vertex -0.498102 6.53562 -2
      vertex -2.28546 7.36243 -2
    endloop
  endfacet
  facet normal 0.299751 0.656363 -0.692341
    outer loop
      vertex -0.274759 8.08901 -0.440641
      vertex -0.496679 6.54552 -2
      vertex -0.445042 8.05014 -0.551212
    endloop
  endfacet
  facet normal 0.299751 0.656363 -0.692341
    outer loop
      vertex -0.445042 8.05014 -0.551212
      vertex -0.496679 6.54552 -2
      vertex -2.28546 7.36243 -2
    endloop
  endfacet
  facet normal 0.299751 0.656363 -0.692341
    outer loop
      vertex -0.445042 8.05014 -0.551212
      vertex -2.28546 7.36243 -2
      vertex -1.181 8.63705 -0.313438
    endloop
  endfacet
  facet normal -0.10269 0.714226 -0.692341
    outer loop
      vertex -0.496679 6.54552 -2
      vertex -0.274759 8.08901 -0.440641
      vertex 1.4498 6.82538 -2
    endloop
  endfacet
  facet normal -0.10269 0.714226 -0.692341
    outer loop
      vertex 1.4498 6.82538 -2
      vertex -0.274759 8.08901 -0.440641
      vertex 0.764403 8.32619 -0.350094
    endloop
  endfacet
  facet normal -0.472528 0.545326 -0.692341
    outer loop
      vertex 1.4498 6.82538 -2
      vertex 0.764403 8.32619 -0.350094
      vertex 2.93597 8.11316 -2
    endloop
  endfacet
  facet normal -0.472528 0.545326 -0.692341
    outer loop
      vertex 2.93597 8.11316 -2
      vertex 0.764403 8.32619 -0.350094
      vertex 1.24698 8.43634 -0.5927
    endloop
  endfacet
  facet normal -0.472528 0.545326 -0.692341
    outer loop
      vertex 2.93597 8.11316 -2
      vertex 1.24698 8.43634 -0.5927
      vertex 1.52731 9.01846 -0.325521
    endloop
  endfacet
  facet normal -0.692341 0.20329 -0.692341
    outer loop
      vertex 3.49 10 -2
      vertex 2.93597 8.11316 -2
      vertex 2 10 -0.51
    endloop
  endfacet
  facet normal -0.692341 0.20329 -0.692341
    outer loop
      vertex 2 10 -0.51
      vertex 2.93597 8.11316 -2
      vertex 1.52731 9.01846 -0.325521
    endloop
  endfacet
  facet normal -0.692341 -0.20329 -0.692341
    outer loop
      vertex 3.49 10 -2
      vertex 2 10 -0.51
      vertex 2.93597 11.8868 -2
    endloop
  endfacet
  facet normal -0.692341 -0.20329 -0.692341
    outer loop
      vertex 2.93597 11.8868 -2
      vertex 2 10 -0.51
      vertex 1.52731 10.9815 -0.325521
    endloop
  endfacet
  facet normal -0.472528 -0.545326 -0.692341
    outer loop
      vertex 0.764403 11.6738 -0.350094
      vertex 1.4498 13.1746 -2
      vertex 1.24698 11.5637 -0.5927
    endloop
  endfacet
  facet normal -0.472528 -0.545326 -0.692341
    outer loop
      vertex 1.24698 11.5637 -0.5927
      vertex 1.4498 13.1746 -2
      vertex 2.93597 11.8868 -2
    endloop
  endfacet
  facet normal -0.472528 -0.545326 -0.692341
    outer loop
      vertex 1.24698 11.5637 -0.5927
      vertex 2.93597 11.8868 -2
      vertex 1.52731 10.9815 -0.325521
    endloop
  endfacet
  facet normal -0.10269 -0.714226 -0.692341
    outer loop
      vertex -0.274759 11.911 -0.440641
      vertex -0.496679 13.4545 -2
      vertex 1.4498 13.1746 -2
    endloop
  endfacet
  facet normal -0.10269 -0.714226 -0.692341
    outer loop
      vertex 0.764403 11.6738 -0.350094
      vertex -0.274759 11.911 -0.440641
      vertex 1.4498 13.1746 -2
    endloop
  endfacet
  facet normal 0.299751 -0.656363 -0.692341
    outer loop
      vertex -0.496679 13.4545 -2
      vertex -0.274759 11.911 -0.440641
      vertex -2.28546 12.6376 -2
    endloop
  endfacet
  facet normal 0.299751 -0.656363 -0.692341
    outer loop
      vertex -2.28546 12.6376 -2
      vertex -0.274759 11.911 -0.440641
      vertex -0.445042 11.9499 -0.551212
    endloop
  endfacet
  facet normal 0.299751 -0.656363 -0.692341
    outer loop
      vertex -2.28546 12.6376 -2
      vertex -0.445042 11.9499 -0.551212
      vertex -1.181 11.3629 -0.313438
    endloop
  endfacet
  facet normal 0.607024 -0.39011 -0.692341
    outer loop
      vertex -1.80194 10.5291 -0.388011
      vertex -3.34863 10.9832 -2
      vertex -1.80194 10.8678 -0.57884
    endloop
  endfacet
  facet normal 0.607024 -0.39011 -0.692341
    outer loop
      vertex -1.80194 10.8678 -0.57884
      vertex -3.34863 10.9832 -2
      vertex -2.28546 12.6376 -2
    endloop
  endfacet
  facet normal 0.607024 -0.39011 -0.692341
    outer loop
      vertex -1.80194 10.8678 -0.57884
      vertex -2.28546 12.6376 -2
      vertex -1.181 11.3629 -0.313438
    endloop
  endfacet
  facet normal 0.607024 0.39011 -0.692341
    outer loop
      vertex -3.34863 9.01675 -2
      vertex -1.80194 9.4709 -0.388011
      vertex -2.28546 7.36243 -2
    endloop
  endfacet
  facet normal 0.607024 0.39011 -0.692341
    outer loop
      vertex -2.28546 7.36243 -2
      vertex -1.80194 9.4709 -0.388011
      vertex -1.80194 9.13223 -0.57884
    endloop
  endfacet
  facet normal 0.607024 0.39011 -0.692341
    outer loop
      vertex -2.28546 7.36243 -2
      vertex -1.80194 9.13223 -0.57884
      vertex -1.181 8.63705 -0.313438
    endloop
  endfacet
  facet normal 0.72157 0 -0.692341
    outer loop
      vertex -3.34863 9.01675 -2
      vertex -3.34863 10.9832 -2
      vertex -1.80194 10.5291 -0.388011
    endloop
  endfacet
  facet normal 0.72157 0 -0.692341
    outer loop
      vertex -1.80194 9.4709 -0.388011
      vertex -3.34863 9.01675 -2
      vertex -1.80194 10.5291 -0.388011
    endloop
  endfacet
endsolid OpenSCAD_Model
